<?xml version="1.0" standalone="no"?>
<!DOCTYPE svg PUBLIC "-//W3C//DTD SVG 20010904//EN"
 "http://www.w3.org/TR/2001/REC-SVG-20010904/DTD/svg10.dtd">
<svg version="1.0" xmlns="http://www.w3.org/2000/svg"
 width="16.000000pt" height="16.000000pt" viewBox="0 0 16.000000 16.000000"
 preserveAspectRatio="xMidYMid meet">
<metadata>
Created by potrace 1.11, written by Peter Selinger 2001-2013
</metadata>
<g transform="translate(0.000000,16.000000) scale(0.002133,-0.002133)"
fill="#000000" stroke="none">
<path d="M414 7063 c2 -16 7 -107 11 -203 4 -96 8 -211 10 -255 2 -44 7 -147
10 -230 3 -82 8 -193 10 -245 4 -92 11 -234 20 -450 3 -58 7 -168 10 -245 3
-77 7 -180 10 -230 7 -127 12 -261 30 -700 3 -71 7 -170 10 -220 2 -49 7 -160
11 -245 3 -85 7 -186 9 -225 2 -38 6 -142 9 -230 6 -154 8 -206 21 -470 3 -66
8 -172 10 -235 3 -63 7 -164 9 -225 3 -60 8 -173 11 -250 3 -77 8 -174 10
-215 2 -41 6 -149 10 -240 10 -252 14 -333 20 -480 4 -74 8 -173 10 -220 2
-47 7 -159 11 -250 4 -91 8 -178 8 -195 1 -41 10 -51 48 -60 40 -9 41 -9 98
-25 25 -7 52 -13 60 -15 8 -2 105 -26 215 -55 110 -29 234 -60 275 -70 41 -10
183 -46 315 -80 132 -34 248 -63 258 -65 9 -2 21 -6 26 -9 5 -3 25 -8 44 -11
33 -6 36 -4 31 17 -14 71 -17 341 -16 1578 0 751 1 1370 1 1377 2 22 471 352
651 458 115 67 133 77 240 130 172 86 328 146 483 186 90 23 92 23 157 34 25
4 53 9 64 11 95 18 434 24 587 11 333 -28 642 -149 693 -272 23 -53 54 -195
62 -275 8 -89 8 -206 0 -725 -11 -640 -16 -959 -32 -1975 -3 -228 -7 -448 -8
-487 -1 -59 2 -73 14 -73 8 0 78 9 155 20 77 11 156 22 175 25 49 6 330 45
360 50 14 2 45 6 70 10 42 5 92 12 150 20 14 2 126 18 250 34 124 17 255 36
292 42 l67 11 0 298 c-1 270 -2 298 -17 302 -9 2 -142 3 -294 3 l-278 0 0 523
0 522 278 1 c152 1 284 1 294 0 15 -2 16 28 17 349 0 192 -3 351 -7 351 -4 1
-78 3 -165 4 -87 1 -160 4 -162 7 -5 5 -11 103 -20 348 -7 199 -14 393 -20
545 -2 66 -7 192 -10 280 -4 88 -8 202 -10 254 l-4 94 -48 50 c-236 242 -596
402 -1083 482 -14 2 -47 7 -75 10 -27 3 -68 8 -90 11 -178 24 -592 35 -800 20
-353 -24 -613 -85 -887 -206 -254 -113 -532 -310 -833 -592 -27 -25 -86 -80
-130 -121 -44 -41 -82 -73 -84 -71 -2 2 -4 584 -4 1293 l0 1289 -61 16 c-34 9
-155 41 -271 71 -269 71 -556 146 -575 150 -45 10 -602 158 -644 170 -69 21
-77 20 -72 -12z"/>
<path d="M6129 7027 c-3 -246 0 -1144 5 -1217 3 -52 8 -160 11 -240 3 -80 8
-176 10 -215 4 -70 11 -222 20 -430 3 -60 7 -162 10 -225 9 -182 15 -315 20
-450 3 -69 7 -159 10 -200 2 -41 7 -149 11 -240 3 -91 7 -192 9 -225 2 -33 7
-134 10 -225 4 -91 8 -181 10 -200 2 -19 3 -42 4 -50 1 -13 46 -15 346 -15
l345 0 1 30 c0 17 2 52 4 80 2 27 6 119 10 205 4 85 8 182 10 215 2 33 6 128
10 210 3 83 8 182 10 220 5 94 15 298 20 415 2 52 7 151 10 220 3 69 8 168 10
220 3 52 7 133 10 180 2 47 7 150 11 230 10 229 11 265 20 430 4 85 8 416 8
735 l1 580 -477 2 -478 1 -1 -41z"/>
<path d="M6011 2150 c-9 -6 -11 -799 -2 -801 15 -3 1057 -5 1066 -2 7 2 11
137 11 403 0 395 -1 400 -21 401 -74 4 -1048 3 -1054 -1z"/>
</g>
</svg>
